<?xml version="1.0" encoding="utf-8"?>
<!-- Generator: Adobe Illustrator 24.3.0, SVG Export Plug-In . SVG Version: 6.00 Build 0)  -->
<svg version="1.1" id="Layer_1" xmlns="http://www.w3.org/2000/svg" xmlns:xlink="http://www.w3.org/1999/xlink" x="0px" y="0px"
	 viewBox="0 0 1920 365" style="enable-background:new 0 0 1920 365;" xml:space="preserve">
<style type="text/css">
	.st0{fill:#206994;}
	.st1{fill:#367FAC;}
	.st2{fill:#85B3CB;}
	.st3{fill:#488DB4;}
	.st4{fill:#1B5F86;}
	.st5{fill:#2272A5;}
	.st6{fill:#CA4B06;}
	.st7{fill:#F8782F;}
	.st8{fill:#F6681C;}
	.st9{fill:#F8A77A;}
	.st10{fill:#FA965A;}
	.st11{fill:#F98748;}
	.st12{fill:#E15309;}
	.st13{fill:none;}
	.st14{enable-background:new    ;}
	.st15{fill:#FFFFFF;}
</style>
<g>
	<polygon class="st0" points="147.8,20.4 25.2,128.9 147.8,128.9 	"/>
	<polygon class="st1" points="147.8,129 25.2,237.5 147.8,237.5 	"/>
	<polygon class="st2" points="147.8,237.5 25.2,346 147.8,346 	"/>
	<polygon class="st2" points="147.8,346 270.3,237.5 147.8,237.5 	"/>
	<polygon class="st3" points="147.8,237.5 270.3,129 147.8,129 	"/>
	<polygon class="st4" points="147.8,129 270.3,20.5 147.8,20.5 	"/>
	<polygon class="st5" points="25.2,237.5 147.8,129 25.2,129 	"/>
	<polygon class="st6" points="270.3,129 392.9,20.5 270.3,20.5 	"/>
	<polygon class="st7" points="270.3,237.5 392.9,129 270.3,129 	"/>
	<polygon class="st8" points="270.3,129 147.8,237.5 270.3,237.5 	"/>
	<polygon class="st9" points="270.3,237.5 147.8,346 270.3,346 	"/>
	<polygon class="st10" points="270.3,346 392.9,237.5 270.3,237.5 	"/>
	<polygon class="st11" points="392.9,129 270.3,237.5 392.9,237.5 	"/>
	<polygon class="st12" points="270.3,20.5 147.8,129 270.3,129 	"/>
</g>
<rect x="565.1" y="74.4" class="st13" width="1461" height="223.6"/>
<g class="st14">
	<path class="st15" d="M615.6,229.4c0,18.3-6.6,32.7-19.7,43.2c-13.1,10.5-31.4,15.8-54.9,15.8c-21.6,0-40.7-4.1-57.3-12.2v-39.8
		c13.6,6.1,25.2,10.4,34.7,12.9s18.1,3.7,25.9,3.7c9.4,0,16.6-1.8,21.7-5.4c5-3.6,7.5-8.9,7.5-16c0-4-1.1-7.5-3.3-10.6
		s-5.5-6.1-9.8-8.9c-4.3-2.9-13-7.4-26.2-13.7c-12.4-5.8-21.6-11.4-27.8-16.7s-11.1-11.6-14.8-18.7c-3.7-7.1-5.5-15.4-5.5-24.9
		c0-17.9,6.1-32,18.2-42.2c12.1-10.2,28.9-15.4,50.3-15.4c10.5,0,20.5,1.2,30.1,3.7c9.5,2.5,19.5,6,30,10.5l-14,33.3
		c-10.8-4.4-19.7-7.5-26.8-9.3s-14-2.6-20.8-2.6c-8.1,0-14.3,1.9-18.7,5.7c-4.3,3.8-6.5,8.7-6.5,14.8c0,3.8,0.9,7.1,2.6,9.9
		c1.8,2.8,4.5,5.5,8.4,8.2c3.8,2.6,12.9,7.4,27.2,14.2c18.9,9,31.9,18.1,38.9,27.2C612,205.1,615.6,216.2,615.6,229.4z"/>
	<path class="st15" d="M719.7,288.4c-18.2,0-32.4-6.6-42.8-19.8h-2.2c1.5,12.9,2.2,20.4,2.2,22.4v62.7h-42.2V130.9H669l6,20.1h1.9
		c9.9-15.3,24.5-23,43.9-23c18.3,0,32.6,7.1,42.9,21.2c10.3,14.1,15.5,33.7,15.5,58.8c0,16.5-2.4,30.9-7.3,43
		c-4.8,12.2-11.7,21.4-20.7,27.8C742.3,285.2,731.8,288.4,719.7,288.4z M707.2,161.8c-10.4,0-18,3.2-22.8,9.6
		c-4.8,6.4-7.3,17-7.5,31.8v4.6c0,16.6,2.5,28.5,7.4,35.7s12.8,10.8,23.5,10.8c18.9,0,28.4-15.6,28.4-46.8c0-15.2-2.3-26.6-7-34.2
		C724.5,165.6,717.2,161.8,707.2,161.8z"/>
	<path class="st15" d="M898.1,285.6l-8.2-21h-1.1c-7.1,8.9-14.4,15.2-21.9,18.6c-7.5,3.5-17.3,5.2-29.4,5.2
		c-14.9,0-26.5-4.2-35.1-12.7c-8.5-8.5-12.8-20.6-12.8-36.2c0-16.4,5.7-28.5,17.2-36.3s28.8-12.1,52-12.9l26.8-0.8v-6.8
		c0-15.7-8-23.5-24.1-23.5c-12.4,0-26.9,3.7-43.6,11.2l-14-28.5c17.8-9.3,37.5-14,59.2-14c20.8,0,36.7,4.5,47.7,13.6
		c11.1,9,16.6,22.8,16.6,41.2v103.1h-29.3V285.6z M885.7,213.9l-16.3,0.6c-12.3,0.4-21.4,2.6-27.4,6.6c-6,4.1-9,10.2-9,18.5
		c0,11.9,6.8,17.8,20.5,17.8c9.8,0,17.6-2.8,23.5-8.4c5.9-5.6,8.8-13.1,8.8-22.4L885.7,213.9L885.7,213.9z"/>
	<path class="st15" d="M1043.2,128c5.7,0,10.5,0.4,14.2,1.2l-3.2,39.6c-3.4-0.9-7.6-1.4-12.5-1.4c-13.5,0-24,3.5-31.5,10.4
		s-11.3,16.6-11.3,29.1v78.7h-42.2V130.9h32l6.2,26h2.1c4.8-8.7,11.3-15.7,19.4-21C1024.7,130.7,1033.6,128,1043.2,128z"/>
	<path class="st15" d="M1111.9,201.5l18.4-23.5l43.3-47h47.6l-61.4,67.1l65.2,87.6h-48.7l-44.6-62.7l-18.1,14.5v48.1h-42.2V70.3
		h42.2v96l-2.2,35.1h0.5V201.5z"/>
	<path class="st15" d="M1376,146.4c0,21.8-6.8,38.4-20.4,49.9s-33,17.3-58,17.3h-18.4v71.9h-42.9V83.3h64.6c24.5,0,43.2,5.3,56,15.8
		C1369.6,109.7,1376,125.5,1376,146.4z M1279.1,178.5h14.1c13.2,0,23.1-2.6,29.6-7.8s9.8-12.8,9.8-22.8c0-10.1-2.7-17.5-8.2-22.3
		s-14.1-7.2-25.8-7.2h-19.5V178.5z"/>
	<path class="st15" d="M1537.2,208c0,25.2-6.6,44.9-19.9,59.1s-31.8,21.3-55.5,21.3c-14.9,0-27.9-3.3-39.3-9.8
		c-11.3-6.5-20.1-15.8-26.1-28c-6.1-12.2-9.1-26.4-9.1-42.6c0-25.3,6.6-44.9,19.8-58.9c13.2-14,31.7-21,55.6-21
		c14.8,0,27.9,3.2,39.3,9.7c11.3,6.5,20.1,15.7,26.2,27.8C1534.2,177.6,1537.2,191.7,1537.2,208z M1430.3,208
		c0,15.3,2.5,26.9,7.5,34.7s13.2,11.8,24.6,11.8c11.3,0,19.3-3.9,24.3-11.7c4.9-7.8,7.4-19.4,7.4-34.8c0-15.3-2.5-26.8-7.5-34.5
		s-13.1-11.5-24.5-11.5c-11.3,0-19.4,3.8-24.4,11.4C1432.8,181.1,1430.3,192.6,1430.3,208z"/>
	<path class="st15" d="M1556.1,90.9c0-13.7,7.7-20.6,23-20.6s23,6.9,23,20.6c0,6.6-1.9,11.6-5.7,15.3c-3.8,3.6-9.6,5.5-17.2,5.5
		C1563.8,111.7,1556.1,104.8,1556.1,90.9z M1600.1,285.6h-42.2V130.9h42.2V285.6z"/>
	<path class="st15" d="M1773,285.6h-42.2v-90.3c0-11.2-2-19.5-5.9-25.1c-4-5.6-10.3-8.4-19-8.4c-11.8,0-20.3,3.9-25.6,11.8
		c-5.3,7.9-7.9,21-7.9,39.2v72.8h-42.2V130.9h32.2l5.7,19.8h2.4c4.7-7.5,11.2-13.1,19.4-16.9c8.3-3.8,17.6-5.7,28.2-5.7
		c18,0,31.6,4.9,41,14.6c9.3,9.7,14,23.8,14,42.1L1773,285.6L1773,285.6z"/>
	<path class="st15" d="M1867.5,254.7c7.4,0,16.2-1.6,26.6-4.8v31.4c-10.5,4.7-23.4,7.1-38.7,7.1c-16.9,0-29.2-4.3-36.9-12.8
		c-7.7-8.5-11.6-21.3-11.6-38.4v-74.6h-20.2v-17.8l23.2-14.1l12.2-32.7h27v32.9h43.3v31.7h-43.3v74.6c0,6,1.7,10.4,5,13.3
		C1857.5,253.3,1861.9,254.7,1867.5,254.7z"/>
</g>
</svg>
